<svg xmlns="http://www.w3.org/2000/svg" fill="none" viewBox="0 0 24 24" id="Travis-Ci--Streamline-Svg-Logos" height="24" width="24">
  <desc>
    Travis Ci Streamline Icon: https://streamlinehq.com
  </desc>
  <path fill="#0e0f0d" d="M23.69235 8.5324c-0.010975 -0.085625 -0.024175 -0.17115 -0.04185 -0.255075 -0.01645 -0.08665 -0.033525 -0.1672 -0.06085 -0.26105l-0.065425 -0.103825c-0.2696 -0.2117 -0.560525 -0.3718 -0.855825 -0.5132 -0.2438 -0.115075 -0.49145 -0.21535 -0.74195 -0.307775 -0.698375 -1.937975 -1.898675 -3.65635 -3.47695 -4.85369 -1.6313 -1.23747 -3.549975 -1.89257 -5.5482 -1.89257 -1.9983 0 -3.917 0.6551 -5.5484 1.8926725C5.774725 3.435125 4.574225 5.1536 3.876075 7.091975c-0.2499 0.092025 -0.497975 0.1927 -0.74145 0.307275 -0.2958 0.1414 -0.58655 0.3014 -0.85624 0.5132l-0.06562 0.103825c-0.0261075 0.09385 -0.0431725 0.1744 -0.0608475 0.26105 -0.016965 0.083925 -0.0296625 0.16945 -0.04175 0.255075 -0.0241775 0.169025 -0.0402275 0.34 -0.0491675 0.511075 -0.0171675 0.342525 -0.007515 0.685675 0.03007 1.026275 0.036265 0.3401 0.09965 0.67715 0.19006 1.01135 0.0474375 0.165875 0.101275 0.330025 0.16517 0.492875 0.031695 0.081575 0.066325 0.162525 0.104725 0.243475 0.0189 0.040225 0.039625 0.07955 0.06075 0.1207 0.046825 0.082075 0.055375 0.098125 0.075075 0.127275l0.088575 0.081575c0.0577 0.02965 0.10555 0.0522 0.15775 0.077l0.152475 0.06835c0.02825 0.011575 0.05475 0.023075 0.0836 0.03465 -0.6926775 0.640475 -1.4449925 1.472425 -2.0965375 2.500725L0.25 16.12575l1.1550875 -1.0138c0.019605 -0.01715 0.9880875 -0.8556 2.6033375 -1.8055l0.02265 0.1857c-0.10565 0.05495 -0.61355 0.3215 -0.7645 0.44775 -0.2502 0.20785 -0.262275 0.530275 -0.19535 1.131925 0.03435 0.3083 0.14995 0.906925 0.305875 1.455775 0.268675 0.9444 0.46555 1.111425 0.638425 1.150525 0.078025 0.0187 0.1787 0.027325 0.29185 0.027325 0.309425 0 0.7057 -0.06025 0.964325 -0.13835 0.303325 0.943275 0.733025 1.79485 1.256775 2.542175 -0.0253 0.0068 -0.0503 0.014925 -0.075575 0.02215 -0.315025 -0.146075 -1.416575 -0.656425 -1.786925 -0.822825l-0.77365 -0.3483 0.457625 0.714525c0.033325 0.0516 0.823225 1.283275 1.46815 2.1135 0.6032 0.77415 1.42915 1.5667 2.987725 1.5667 0.187625 0 0.383875 -0.0121 0.586125 -0.03445 0.46475 -0.053325 0.813975 -0.095275 1.079525 -0.1293 1.636075 0.60115 3.44005 0.638125 5.152125 -0.010575 0.4685 -0.177975 0.89545 -0.393825 1.28745 -0.6359 0.660075 -0.15845 1.382025 -0.33055 1.738675 -0.4307 0.057175 -0.01545 0.1288 -0.0325 0.20325 -0.050075 0.49695 -0.114275 1.327475 -0.306975 1.770375 -1.192875 0.44625 -0.893825 1.173975 -2.26335 1.1816 -2.277375l0.3403 -0.63895 -0.663025 0.2883c-0.03545 0.01615 -0.875625 0.38195 -1.312025 0.6107 0.303225 -0.698175 0.4819 -1.276075 0.544175 -1.498025 0.2444 0.058825 0.60675 0.0513 0.8732 0.0513 0.131025 0 0.265825 -0.02275 0.3533 -0.0451 0.1732 -0.043975 0.306975 -0.159075 0.5585 -1.13355 0.146475 -0.566425 0.2515 -1.183225 0.28025 -1.500275 0.055775 -0.617 0.0377 -0.94765 -0.214125 -1.1564 -0.12545 -0.1036 -0.4937 -0.3019 -0.6809 -0.399525 0.104725 -0.0448 0.156125 -0.031675 0.1601 -0.030575l0.170025 -0.644625c0.05985 -0.0256 0.123125 -0.0513 0.19515 -0.078925 0.1026 -0.04085 0.2053 -0.081475 0.308 -0.125775l0.15165 -0.06835c0.052825 -0.0248 0.100275 -0.04725 0.158175 -0.077l0.088575 -0.081575c0.0191 -0.02915 0.02935 -0.0452 0.04115 -0.06745 0.056075 -0.100975 0.075875 -0.1403 0.094575 -0.180525 0.038375 -0.08095 0.072525 -0.162025 0.104725 -0.243475 0.0639 -0.16285 0.117625 -0.327 0.164975 -0.492875 0.0901 -0.3342 0.1544 -0.67115 0.19025 -1.01135 0.0382 -0.3406 0.046725 -0.68375 0.029675 -1.026275 -0.00815 -0.171075 -0.025 -0.34205 -0.049275 -0.511075Z" stroke-width="0.25"></path>
  <path fill="#e1c5a2" d="M13.972575 21.808275c-0.12515 0.0188 -0.2504 0.034125 -0.374125 0.044 -0.08055 0.00395 -0.165075 0.011975 -0.242075 0.011975l-0.02875 0.0007c0.096625 -0.21545 0.17015 -0.38295 0.225425 -0.509725 0.11325 0.126775 0.2572 0.283625 0.419525 0.45305Z" stroke-width="0.25"></path>
  <path fill="#a89983" d="M13.8207 12.17635c-0.19575 0.158875 -0.401975 0.306775 -0.6167 0.4366l-0.716375 0.432125c-0.449275 0.05485 -0.83915 0.165875 -0.8614 0.172675 -0.0131 0.00285 -0.0255 0.00895 -0.037075 0.01595 -0.03485 0.020125 -0.06135 0.05385 -0.07405 0.093775l-0.729575 2.403525 -3.899325 0.8672 -1.228525 -0.8602 -0.35725 -2.894275c0.69775 -0.1282 1.630475 -0.2761 2.750725 -0.40185 -0.119775 0.143425 -0.236275 0.294175 -0.3471 0.45275l-0.6669 0.9573 0.971325 -0.647375c0.01465 -0.01015 0.632775 -0.4171 1.644525 -0.9121 1.0083 -0.075475 2.121425 -0.124225 3.312175 -0.124225 0.290925 0 0.57575 0.00345 0.855525 0.008125ZM7.751175 15.437025c0.277225 -0.14975 0.5901 -0.1278 1.080225 -0.126675 0.0522 0.001 0.10655 0.0004 0.162825 -0.001125 0.048475 0 0.096725 -0.000825 0.148025 -0.002325 0.50505 -0.0051 0.9246 0.04265 0.916975 -0.749575 -0.007525 -0.79235 -0.3597 -1.433125 -0.864375 -1.42815 -0.50455 0.004475 -0.99295 0.653875 -0.962775 1.445825 0.008025 0.2062 0.0386 0.355225 0.08705 0.4623 -0.43975 0.1106 -0.56145 0.38265 -0.56795 0.399725Z" stroke-width="0.25"></path>
  <path fill="#a89983" d="m20.579 12.8342 -0.351175 2.461025 -1.238475 0.8673 -3.89425 -0.442575 -0.726625 -2.392675c-0.01655 -0.053325 -0.0578 -0.09415 -0.111225 -0.1096 -0.023975 -0.0072 -0.506075 -0.14505 -1.01715 -0.18925l0.093575 -0.0062c0.08055 -0.005975 1.42345 -0.17045 3.02755 -0.72315 1.77585 0.136225 3.226525 0.3541 4.217775 0.535125Zm-2.48815 2.277975c-0.005075 -0.0191 -0.11195 -0.33745 -0.58075 -0.281575 0.05385 -0.11785 0.078125 -0.276825 0.06105 -0.495025 -0.06185 -0.7908 -0.522325 -1.4193 -1.026475 -1.401525 -0.504675 0.017475 -0.8274 0.6731 -0.79945 1.46645 0.027725 0.791625 0.450725 0.786125 0.955375 0.76815 0.67775 -0.0129 1.04985 -0.221025 1.39025 -0.056475Z" stroke-width="0.25"></path>
  <path fill="#ffffff" d="M16.758575 13.68875c0.00245 0.142425 -0.1105 0.25955 -0.253025 0.262475 -0.142225 0.00255 -0.26015 -0.111125 -0.262075 -0.253125 -0.00295 -0.142325 0.1103 -0.25995 0.252625 -0.2625 0.142825 -0.00305 0.26045 0.110725 0.262475 0.25315Z" stroke-width="0.25"></path>
  <path fill="#ffffff" d="M9.5305 13.878175c0.00355 0.1418 -0.1087 0.26045 -0.2506 0.2641 -0.142925 0.004075 -0.261575 -0.107975 -0.265525 -0.251 -0.003575 -0.141925 0.108475 -0.261175 0.2515 -0.264225 0.141725 -0.00395 0.260675 0.1082 0.264625 0.251125Z" stroke-width="0.25"></path>
  <path fill="#e1c5a2" d="M22.278775 13.916975c-0.06085 -0.050275 -0.264225 -0.1665 -0.4624 -0.273675L21.49 15.930925c-0.006625 0.043575 -0.0314 0.084425 -0.068475 0.110525l-0.466975 0.3266c-0.011075 0.05525 -0.0197 0.101375 -0.028025 0.14455 0.458825 0.11295 0.904475 -0.2179 1.154675 -0.456625 0.1157 -0.4507 0.216575 -0.98575 0.2514 -1.3687 0.05325 -0.59365 0.0061 -0.721025 -0.053825 -0.7703Z" stroke-width="0.25"></path>
  <path fill="#e1c5a2" d="M15.0667 22.608125c-0.303025 -0.107775 -0.58075 -0.283525 -0.8225 -0.52255 -0.020125 -0.0205 -0.039325 -0.040325 -0.059525 -0.060425 -0.187125 0.0383 -0.3782 0.065825 -0.572925 0.082375 -0.082075 0.00365 -0.1604 0.010675 -0.24605 0.010675l-0.12665 0.0011 -0.048775 -0.0011c-0.2896 0.4301 -0.776475 0.666475 -1.157925 0.792325 1.13325 0.194425 2.38015 -0.1031 3.03435 -0.3024Z" stroke-width="0.25"></path>
  <path fill="#e1c5a2" d="M5.09065 17.005375c-0.01015 -0.034525 -0.020825 -0.06865 -0.030675 -0.1033l-0.60665 -0.4246c-0.0381 -0.027025 -0.062275 -0.067775 -0.068375 -0.114075l-0.2958 -2.402225c-0.2189 0.116825 -0.47195 0.261075 -0.5393 0.31745 -0.0585 0.04835 -0.1032 0.171475 -0.039925 0.743875 0.04805 0.4303 0.199225 1.0914 0.353625 1.586825 0.307175 0.23495 0.759625 0.4826 1.2271 0.39605Z" stroke-width="0.25"></path>
  <path fill="#e1c5a2" d="M14.159975 16.89585c-0.0645 -0.0072 -0.11885 -0.052525 -0.13785 -0.1154l-0.74865 -2.467c-0.12555 -0.016475 -0.237 -0.0256 -0.33105 -0.0256 -0.094475 0 -0.2052 0.009125 -0.33065 0.0256l-0.72775 2.3961c-0.01715 0.055775 -0.063375 0.09895 -0.120875 0.11155l-0.347925 0.0775c-0.02945 0.1229 -0.1297 0.303225 -0.452325 0.40215 -0.520725 0.158775 -3.81685 1.141275 -4.1927 1.08785 -0.219525 -0.030775 -0.637025 -0.261175 -0.945925 -0.447475 -0.123625 -0.291025 -0.192 -0.4889 -0.20765 -0.53585v-0.0009l-0.0009 0.0009c0.043675 0.1278 0.473775 1.365875 1.347675 2.57695 0.9369 -0.2761 1.7461 -0.533525 2.004825 -0.6154 0.527 -0.81265 1.2778 -1.619 1.811 -1.646525 0.09255 -0.004575 0.187725 -0.007425 0.2821 -0.007425 0.261275 0 0.51065 0.0186 0.74215 0.046025 -0.19665 -0.178475 -0.236975 -0.387225 -0.265525 -0.479875 0 0 0.681 0.5326 1.547175 0.42055 0.867525 -0.111025 1.4057 -0.610625 1.4057 -0.610625l0.017075 -0.153575 -0.347925 -0.039525Z" stroke-width="0.25"></path>
  <path fill="#e1c5a2" d="M14.863875 17.208c-0.1797 -0.046525 -0.292875 -0.120675 -0.364475 -0.198l-0.00895 0.078825s-0.00295 0.364075 -0.380225 0.646175c0.726525 -0.220025 1.0269 -0.294475 1.2326 -0.294475 0.226425 0 0.338475 0.09445 0.4367 0.17745 0.0186 0.01555 0.037175 0.0318 0.059425 0.049175 0.5588 0.43975 1.23045 0.97355 1.426625 1.1305 0.227425 0.0262 0.949275 0.1088 1.40355 0.150225 0.261575 0.0244 0.49845 0.0441 0.730475 0.0441 0.07435 0 0.14475 -0.00255 0.211275 -0.007125 0.23955 -0.458725 0.460075 -0.966225 0.656325 -1.52575 -0.268575 0.188425 -0.8807 0.60085 -1.167475 0.653975 -0.3731 0.0699 -3.709775 -0.76865 -4.23585 -0.905075Z" stroke-width="0.25"></path>
  <path fill="#e0d896" d="M23.2601 8.580325c-0.0063 -0.079025 -0.014925 -0.15795 -0.024575 -0.235975 -0.0065 -0.055875 -0.01535 -0.113775 -0.025 -0.1674 -0.210675 -0.177275 -0.4503 -0.335125 -0.6996 -0.47795 -0.27 -0.158575 -0.5527 -0.29945 -0.8414 -0.4307 -0.28615 -0.135325 -0.580725 -0.257625 -0.87635 -0.376875 -0.1478 -0.06025 -0.2968 -0.11825 -0.44655 -0.1735 -0.149025 -0.0583 -0.29935 -0.11265 -0.4504 -0.1675 0.316425 0.0525 0.6303 0.124825 0.94175 0.204875 0.202675 0.0517 0.404 0.110525 0.604025 0.1735C20.018225 3.208975 16.61605 0.786865 12.900875 0.786865c-3.71555 0 -7.117525 2.42221 -8.540175 6.141935 0.1997 -0.062975 0.40155 -0.1218 0.6032 -0.1735 0.311225 -0.08005 0.625225 -0.152375 0.942275 -0.204875 -0.151975 0.05485 -0.302025 0.1092 -0.45185 0.1675 -0.148925 0.05535 -0.297825 0.11325 -0.44575 0.1735 -0.2958 0.11925 -0.589775 0.24155 -0.87685 0.376875 -0.287675 0.13125 -0.570375 0.272125 -0.840675 0.4307 -0.2494 0.142825 -0.488525 0.300675 -0.6997 0.47795 -0.00865 0.053725 -0.017775 0.111625 -0.0248 0.1674 -0.009325 0.078025 -0.017975 0.15695 -0.024975 0.235975 -0.013725 0.158575 -0.0191 0.31745 -0.020225 0.477025 -0.00345 0.318875 0.0182 0.637725 0.058325 0.95285 0.043875 0.316425 0.101775 0.6307 0.1874 0.93475 0.04205 0.15175 0.090325 0.3017 0.145875 0.44705 0.02805 0.072425 0.0583 0.14435 0.09 0.213425 0.01555 0.03465 0.0317 0.068875 0.04845 0.1016l0.020425 0.0387c0.023275 0.011675 0.04795 0.024075 0.0709 0.03525l0.1414 0.06745c0.078925 0.03625 0.18835 0.08805 0.27865 0.1284 0.005075 -0.004575 0.01015 -0.00915 0.014225 -0.013625l-0.2626 -1.000175c0.055775 -0.015025 0.554325 -0.14395 1.413625 -0.3079 -0.068975 -0.013 -0.138875 -0.027525 -0.20775 -0.044175 -0.19565 -0.048975 -0.38875 -0.1083 -0.576075 -0.183775 -0.092625 -0.0393 -0.18405 -0.081975 -0.2711 -0.131225 -0.087075 -0.0503 -0.1726 -0.106675 -0.239125 -0.18215 0.9439 0.3084 2.894875 0.169025 4.629275 -0.01045 1.5857 -0.16355 3.176175 -0.2692 4.77425 -0.27275 1.597675 0.00355 3.18875 0.1092 4.773625 0.27275 1.735125 0.179475 3.686 0.31885 4.6298 0.01045 -0.065825 0.075475 -0.15195 0.13185 -0.2382 0.18215 -0.087775 0.04925 -0.1794 0.092025 -0.27205 0.131225 -0.1871 0.075475 -0.3795 0.1348 -0.57545 0.183775 -0.02905 0.0069 -0.0584 0.013 -0.087475 0.0195 0.9427 0.174725 1.491225 0.316925 1.549325 0.332475l-0.2509 0.952725c0.051 -0.022025 0.1022 -0.044075 0.15135 -0.067325l0.141825 -0.06745c0.02325 -0.011175 0.047425 -0.023575 0.0715 -0.03525l0.019 -0.038725c0.017175 -0.0327 0.033825 -0.066925 0.049175 -0.101575 0.0318 -0.069075 0.06205 -0.141 0.0897 -0.213425 0.05525 -0.14535 0.1037 -0.2953 0.145975 -0.44705 0.085925 -0.30405 0.143825 -0.618425 0.187 -0.93475 0.04095 -0.315125 0.062675 -0.633975 0.059625 -0.95285 -0.001325 -0.159475 -0.0068 -0.31845 -0.021225 -0.476925Z" stroke-width="0.25"></path>
  <path fill="#d7c184" d="M16.809875 6.729975c0.014525 0.425525 0.00405 1.19775 -0.194225 1.9202 -0.008025 0.027625 -0.007 0.056375 0 0.0831 -0.252425 -0.026725 -0.505075 -0.049375 -0.7575 -0.069875 0.283125 -0.59385 0.344975 -1.2261 0.3588 -1.448975 0.217675 -0.1544 0.43405 -0.3401 0.592925 -0.48445Z" stroke-width="0.25"></path>
  <path fill="#d7c184" d="M9.58585 7.214575c0.0132 0.22275 0.075075 0.853575 0.358175 1.447425 -0.252525 0.020025 -0.50505 0.043175 -0.756975 0.07 0.0068 -0.0256 0.0073 -0.05395 0 -0.081575 -0.197875 -0.721425 -0.20845 -1.49355 -0.19485 -1.9202 0.1596 0.14425 0.37545 0.329925 0.59365 0.48435Z" stroke-width="0.25"></path>
  <path fill="#d7c184" d="M19.91095 9.32265c-0.001125 0.007 -0.00305 0.014225 -0.0052 0.021125 0.02775 0.008025 0.054875 0.01615 0.0826 0.0252 0.233425 0.0765 0.467175 0.156425 0.69035 0.25955 -0.3726 -0.242075 -0.608875 -0.94055 -0.740625 -1.474475 0.03625 0.698875 -0.023675 1.1422 -0.027125 1.1686Z" stroke-width="0.25"></path>
  <path fill="#d7c184" d="m8.681175 6.5957 -2.410425 0.685575c-0.14435 0.9376 -0.100375 1.65365 -0.0771 1.902125l0.012175 -0.007325s0.078525 -1.0214 0.238625 -1.4133c0.082475 -0.201225 0.58705 -0.329625 0.971725 -0.421575 0.3855 -0.091525 1.000175 -0.275075 1.11955 0.26615 0.07365 0.334425 0.175025 0.61255 0.272225 0.81765 -0.1548 -0.7436 -0.14495 -1.4706 -0.126775 -1.8293Z" stroke-width="0.25"></path>
  <path fill="#d7c184" d="M17.12035 6.5957c0.019725 0.3727 0.02885 1.1429 -0.145875 1.91625 0.109525 -0.210075 0.231225 -0.52 0.315925 -0.9046 0.119175 -0.541225 0.733825 -0.357675 1.119225 -0.26615 0.385525 0.09205 0.88945 0.22035 0.97195 0.421575 0.1358 0.331775 0.2126 1.11395 0.232925 1.346575 0.02285 -0.29905 0.04825 -0.971325 -0.0831 -1.828175l-2.41105 -0.685475Z" stroke-width="0.25"></path>
  <path fill="#d7c184" d="M9.5666 6.80445c0.08565 0.068475 0.175225 0.135325 0.2623 0.194225 0.04215 0.029275 0.06795 0.0769 0.06885 0.1283 0.000525 0.008025 0.0186 0.8022 0.369675 1.478425 0.005075 0.01015 0.008625 0.021225 0.012075 0.0317 0.8729 -0.059325 1.748325 -0.0834 2.621625 -0.0839 0.8738 0.0005 1.748725 0.0262 2.621225 0.085925 0.00345 -0.011475 0.0067 -0.02265 0.0129 -0.033725 0.35055 -0.676225 0.36935 -1.4704 0.36935 -1.478425 0.000925 -0.0514 0.027225 -0.09915 0.069375 -0.1283 0.084225 -0.056875 0.16925 -0.121375 0.252425 -0.1875l0.010975 -0.031c0.18255 -1.77645 -0.152175 -3.41345 -0.364975 -4.22235 -0.011175 0.553125 -0.142325 5.292125 -1.318325 5.292125H11.308425c-1.24875 0 -1.3492 -5.343125 -1.3492 -5.343125l-0.0643 0.189775c-0.213025 0.85195 -0.505575 2.41795 -0.328325 4.10785Z" stroke-width="0.25"></path>
  <path fill="#d7c184" d="M5.896425 9.343625c-0.001125 -0.006925 -0.00305 -0.013625 -0.004675 -0.020725 -0.00385 -0.026425 -0.064 -0.470225 -0.027725 -1.169825 -0.13185 0.534325 -0.36885 1.234025 -0.74195 1.475975 0.223175 -0.1035 0.457925 -0.18375 0.691775 -0.26035 0.027225 -0.008525 0.05525 -0.01665 0.082575 -0.025075Z" stroke-width="0.25"></path>
  <path fill="#9f8f78" d="M20.92665 16.512625c-0.019925 0.1024 -0.036475 0.184675 -0.068975 0.313575 0.26765 0.062375 0.705275 0.110825 0.914525 0.07 0.0896 -0.097325 0.2053 -0.434875 0.309125 -0.8403 -0.2502 0.238825 -0.69595 0.569675 -1.154675 0.456725Z" stroke-width="0.25"></path>
  <path fill="#9f8f78" d="M11.33385 23.064725c0.639375 0.175025 1.29245 0.251 1.93585 0.20835 0.64545 -0.0439 1.4835 -0.18315 2.37305 -0.544275 -0.1997 -0.01485 -0.3925 -0.055575 -0.57605 -0.1209 -0.6542 0.199425 -1.901125 0.49695 -3.03435 0.302525 -0.299975 0.098725 -0.53515 0.1294 -0.5581 0.13225 -0.04735 0.0054 -0.08645 0.012 -0.1404 0.02205Z" stroke-width="0.25"></path>
  <path fill="#9f8f78" d="M5.1328 17.148925c-0.014725 -0.04755 -0.028225 -0.0955 -0.04225 -0.14335 -0.467575 0.08655 -0.920025 -0.1611 -1.2269 -0.39595 0.09935 0.31805 0.1996 0.56795 0.274675 0.643925 0.2315 0.040425 0.743675 -0.030575 0.994475 -0.104625Z" stroke-width="0.25"></path>
  <path fill="#9f8f78" d="M5.824125 17.940975c0.3088 0.1863 0.7263 0.416775 0.945925 0.447475 0.37585 0.053425 3.671975 -0.929075 4.192675 -1.08785 0.322625 -0.09895 0.4229 -0.27925 0.45235 -0.40215l-4.75525 1.058975c-0.012075 0.002025 -0.024175 0.00355 -0.03565 0.00355h-0.0005c-0.032825 0 -0.065625 -0.01005 -0.093675 -0.02955l-0.185175 -0.129225 -0.55545 -0.38905v-0.0008l-0.2242 -0.15655c0.003875 0.0127 0.00845 0.0253 0.0126 0.0379 0.0127 0.036875 0.0252 0.07425 0.0386 0.110525v0.0009c0.01575 0.046925 0.084125 0.244825 0.20775 0.53585Z" stroke-width="0.25"></path>
  <path fill="#9f8f78" d="M20.411075 17.027475c0.030475 -0.11225 0.06025 -0.225925 0.087375 -0.3407l-0.165075 0.1159 -0.444325 0.31115 -0.480675 0.33705c-0.024675 0.01695 -0.053325 0.027225 -0.0828 0.02945 -0.00995 0.0006 -0.0196 0.0004 -0.02935 -0.0007L14.50775 16.935225l-0.008125 0.074675c0.071625 0.0774 0.184775 0.15145 0.364375 0.197975 0.5261 0.136425 3.86265 0.975 4.235775 0.905 0.28675 -0.053125 0.8991 -0.46555 1.167475 -0.653975 0.002225 -0.0065 0.004575 -0.0128 0.0067 -0.0193 0.020825 -0.05985 0.04135 -0.119875 0.06165 -0.180425 0.0256 -0.076475 0.0506 -0.153475 0.075475 -0.2317Z" stroke-width="0.25"></path>
  <path fill="#6e6a67" d="M15.344575 10.575675c-0.037675 0.048875 -0.079025 0.1022 -0.123325 0.157975 -0.227425 0.287375 -0.54245 0.653975 -0.91555 1.013675 -0.434675 -0.0136 -0.880925 -0.021125 -1.340275 -0.021125 -0.759225 0 -1.48715 0.02 -2.178325 0.053225 0.977025 -0.4049 2.1502 -0.800775 3.420975 -1.038275 0.370875 -0.070375 0.7505 -0.12665 1.1365 -0.165475Z" stroke-width="0.25"></path>
  <path fill="#6e6a67" d="M9.629 11.01295c-0.34915 0.2451 -0.742475 0.557375 -1.124325 0.936675 -0.977425 0.098125 -1.8306 0.216275 -2.53385 0.32995 1.08145 -0.49685 2.315975 -0.954775 3.658175 -1.266625Z" stroke-width="0.25"></path>
  <path fill="#6e6a67" d="m21.57415 13.031475 -0.3981 2.781725 -1.905075 1.334875 -4.968375 -0.564975 -0.747525 -2.463175c-0.017775 -0.059625 -0.068375 -0.1036 -0.130225 -0.114075 -0.183975 -0.02975 -0.3466 -0.044275 -0.482525 -0.044275 -0.136225 0 -0.29885 0.014525 -0.483925 0.044275 -0.06105 0.010575 -0.11135 0.05445 -0.129925 0.114075l-0.729275 2.403225 -4.940325 1.099225 -1.957875 -1.37145 -0.386425 -3.121925c0.084525 -0.047125 0.17015 -0.094575 0.255975 -0.1419 0.1214 -0.026125 0.257725 -0.05375 0.408575 -0.0824l0.36365 2.945975c0.005 0.045725 0.0308 0.08645 0.068575 0.112875l1.347275 0.9439c0.027125 0.018675 0.06035 0.02925 0.09285 0.02925 0.0121 0 0.023675 -0.001625 0.036375 -0.004075l4.06175 -0.903675c0.014125 -0.00345 0.027525 -0.008425 0.040625 -0.014825 0.037275 -0.0202 0.06735 -0.05455 0.07955 -0.0972l0.732 -2.4082c0.19615 -0.0502 0.698875 -0.168025 1.14045 -0.168025 0.440775 0 0.9434 0.117825 1.14005 0.168025l0.7315 2.4082c0.018675 0.06225 0.07345 0.107675 0.13775 0.115175l4.06245 0.4615c0.039 0.004575 0.079125 -0.0062 0.111425 -0.02885l1.3478 -0.942175c0.03625 -0.0262 0.06125 -0.06695 0.06745 -0.111225l0.3598 -2.5173c0.2701 0.0517 0.495925 0.099125 0.6737 0.137425Z" stroke-width="0.25"></path>
  <path fill="#6e6a67" d="m22.075725 11.28705 -0.349725 1.32665c-0.71525 -0.15785 -2.2859 -0.467375 -4.424 -0.6757 0.698275 -0.29785 1.40965 -0.67095 2.059675 -1.13845 1.2722 0.1797 2.20635 0.372725 2.71405 0.4875Z" stroke-width="0.25"></path>
  <path fill="#6e6a67" d="m3.8562 11.286875 0.097225 0.367225c0.272125 -0.216775 0.5212 -0.396275 0.731375 -0.5396 -0.342525 0.065725 -0.621875 0.12555 -0.8286 0.172375Z" stroke-width="0.25"></path>
  <path fill="#93232c" d="M17.57365 10.546875c-0.535425 -0.030275 -1.070575 -0.055975 -1.6063 -0.078125 -0.0308 0.045825 -0.094075 0.13785 -0.184575 0.261675 -0.287075 0.38835 -0.8529 1.096275 -1.578175 1.703625 0.545675 -0.1729 2.7105 -0.8991 3.807075 -1.86015 -0.146075 -0.00945 -0.29195 -0.0186 -0.438025 -0.027025Z" stroke-width="0.25"></path>
  <path fill="#93232c" d="M13.650325 10.405475c0.0008 -0.0002 0.001725 -0.0003 0.002225 -0.0005 -0.271525 -0.00355 -0.54335 -0.0064 -0.814475 -0.007525h-0.0005c-0.399425 0.001125 -0.797925 0.0062 -1.19735 0.013125l-0.736475 0.349125c-0.001125 0 -0.005575 0.00255 -0.010875 0.0061 -0.110825 0.053825 -1.077575 0.541725 -1.98785 1.412075 0.07965 -0.04195 0.16405 -0.085425 0.251025 -0.1295 0.49785 -0.334525 1.825625 -1.12665 3.890275 -1.648775 0.201325 0.001225 0.402775 0.002425 0.604 0.005875Z" stroke-width="0.25"></path>
  <path fill="#93232c" d="M9.12465 10.494625c-0.341025 0.01575 -0.682125 0.033225 -1.022825 0.052525 -0.39505 0.02205 -0.7889 0.04865 -1.182425 0.078325 -0.19625 0.015125 -0.392825 0.0319 -0.58745 0.0523 -0.056475 0.0055 -0.111725 0.011575 -0.1671 0.0187 -0.5142 0.307375 -2.48225 1.542825 -3.834405 3.1598 0.0232625 -0.028025 0.0473375 -0.055775 0.0712075 -0.0835C4.904925 11.637125 7.649475 10.805775 9.12465 10.494625Z" stroke-width="0.25"></path>
  <path fill="#93232c" d="M20.4501 19.277225c-0.01495 0.0077 -0.0309 0.015825 -0.045125 0.02325 -0.2511 0.13195 -0.580025 0.19655 -1.00515 0.19655 -0.253025 0 -0.5012 -0.021225 -0.776275 -0.0461 -0.54925 -0.0502 -1.479025 -0.1596 -1.488475 -0.161325l-0.071125 -0.0075 -0.056275 -0.045325c-0.008525 -0.005675 -0.8226 -0.655 -1.48085 -1.17245 -0.026825 -0.021725 -0.051 -0.04245 -0.07305 -0.059925 -0.069475 -0.059325 -0.069475 -0.059325 -0.110825 -0.059325 -0.211275 0 -0.825025 0.19055 -2.169175 0.60695l-0.082475 0.0264 -0.081675 -0.030975c-0.00915 -0.002325 -0.890975 -0.329325 -1.947925 -0.329325 -0.08665 0 -0.1729 0.002125 -0.2569 0.0063 -0.10575 0.005375 -0.6998 0.287675 -1.46005 1.489375l-0.04865 0.077625 -0.087575 0.027925c-0.012575 0.004175 -1.32045 0.42615 -2.70755 0.822825l-0.0895 0.0254 -0.085525 -0.039525c-0.00905 -0.00305 -0.550675 -0.254975 -1.066925 -0.49165 0.038 0.017675 0.0763 0.03505 0.1144 0.052725 0.509625 0.439825 1.485525 1.2858 1.5939 1.403025 0.01505 0.016875 0.035975 0.0375 0.06085 0.06085 -0.025175 -0.028425 -0.049575 -0.0578 -0.07355 -0.08735 -0.0003 -0.0002 -0.0006 -0.0006 -0.0009 -0.000925 0.2249 0.213225 0.4758 0.3974 0.749975 0.527025 0.136825 0.0643 0.280275 0.114075 0.426025 0.13825 0.07355 0.012075 0.144975 0.018075 0.219425 0.018075 0.075375 0 0.152475 -0.002225 0.229375 -0.006 0.30495 -0.015625 0.61265 -0.039 0.919725 -0.068775 0.306475 -0.027625 0.61335 -0.0583 0.919625 -0.095475 0.30595 -0.032925 0.611825 -0.071425 0.91505 -0.11845 0.15195 -0.02215 0.3029 -0.047225 0.4504 -0.07995 0.072425 -0.01705 0.1479 -0.03595 0.2053 -0.06175 0.052325 -0.025 0.1158 -0.075375 0.171575 -0.123325 0.114075 -0.098225 0.2243 -0.207225 0.3334 -0.315825 0.1093 -0.108575 0.21585 -0.220225 0.322625 -0.333575 0.179575 -0.18805 0.333475 -0.38785 0.5074 -0.581475 0.022225 -0.024075 0.045 -0.049675 0.06805 -0.07445 0 0.0004 0 0.0004 0.0004 0.0004l0.002025 0.00225c0.036275 0.0261 0.07245 0.0525 0.1079 0.08035 0.20925 0.156025 0.425425 0.32485 0.633775 0.470725 0.268675 0.18885 0.5407 0.377975 0.8222 0.535425 0.070175 0.039125 0.142825 0.0757 0.2122 0.09865 0.008925 0.00325 0.01645 0.004875 0.02345 0.0059 0.0051 0.003025 0.023675 0.005975 0.0258 0.005975 0.013625 0.00205 0.032 0.00295 0.049675 0.004175 0.0379 0.0005 0.0771 -0.001225 0.116425 -0.00305 0.158775 -0.010975 0.319775 -0.034125 0.480875 -0.059325 0.321825 -0.050175 0.64445 -0.108075 0.96525 -0.172375 0.3214 -0.061475 0.6425 -0.1274 0.961575 -0.1984 0.320675 -0.06785 0.63995 -0.142825 0.9567 -0.222575 0.15755 -0.04245 0.3152 -0.08155 0.455775 -0.149 0.14355 -0.06685 0.276825 -0.158575 0.399525 -0.263725 0.247575 -0.210875 0.4558 -0.47235 0.6287 -0.757075 -0.0002 0.0004 -0.0002 0.0006 -0.0004 0.001 0.10615 -0.19725 0.175725 -0.3734 0.216575 -0.491125Z" stroke-width="0.25"></path>
  <path fill="#93232c" d="M14.44905 4.1503h0.566025V3.0005H10.876225v1.1498h0.566v-0.584h1.170425V7.1175h-0.4818v0.65905h1.629375V7.1175h-0.4819V3.5663h1.170725v0.584Z" stroke-width="0.25"></path>
  <path fill="#731b2a" d="M18.73165 10.6251c-0.000925 -0.0005 -0.00195 -0.001 -0.00335 -0.001 -0.23445 -0.017775 -0.4688 -0.033825 -0.70335 -0.049075 -0.004375 -0.0003 -0.00895 -0.0005 -0.013425 -0.0008 -1.096575 0.96105 -3.261275 1.687275 -3.807075 1.86015 -0.010575 0.00905 -0.021025 0.0181 -0.0316 0.026925 0.70265 -0.126475 1.752075 -0.377275 2.84135 -0.859575 0.53565 -0.2371 1.080925 -0.52995 1.5996 -0.8921 0.040025 -0.027725 0.078825 -0.056775 0.11785 -0.084525Z" stroke-width="0.25"></path>
  <path fill="#731b2a" d="M13.046275 10.399425c-2.06465 0.522025 -3.392425 1.31415 -3.890275 1.64865 0.399125 -0.20315 0.872075 -0.42725 1.403675 -0.6498 0.002525 -0.001025 0.005375 -0.00225 0.008025 -0.00335 0.054025 -0.02245 0.109075 -0.045225 0.16435 -0.067775 0.018075 -0.0074 0.03585 -0.014825 0.05405 -0.022025 0.047725 -0.0194 0.096075 -0.0384 0.14465 -0.0578 0.027025 -0.010475 0.053725 -0.021125 0.08095 -0.0317 0.043675 -0.017075 0.087775 -0.034125 0.13215 -0.0511 0.033225 -0.0126 0.06645 -0.0253 0.100075 -0.037775 0.040625 -0.01555 0.081675 -0.0309 0.123 -0.046025 0.0385 -0.014225 0.077625 -0.02835 0.116425 -0.04235 0.0383 -0.013925 0.076275 -0.02765 0.114875 -0.04135 0.0439 -0.01545 0.088175 -0.030775 0.132775 -0.046325 0.03515 -0.0121 0.0701 -0.024275 0.10545 -0.036375 0.0521 -0.017575 0.104625 -0.034925 0.15735 -0.0523 0.02905 -0.00955 0.0577 -0.0191 0.08685 -0.02865 0.082475 -0.026725 0.165875 -0.053125 0.2498 -0.078825 0.18315 -0.056275 0.37035 -0.109925 0.560625 -0.161625 0.24805 -0.06735 0.5009 -0.130625 0.759225 -0.187625 -0.20125 -0.00335 -0.402675 -0.004575 -0.604025 -0.005875Z" stroke-width="0.25"></path>
  <path fill="#731b2a" d="M9.12465 10.494775c-1.475175 0.31115 -4.219725 1.1425 -6.7229975 3.27815 -0.02387 0.027725 -0.047945 0.05535 -0.0712075 0.0835 1.272505 -0.884575 3.45988 -2.19965 6.16398 -2.999625 0.087175 -0.0257 0.175125 -0.050875 0.2634 -0.075775 0.4487 -0.12595 0.9116 -0.235875 1.385275 -0.3279 -0.339275 0.0121 -0.678875 0.0261 -1.01845 0.04165Z" stroke-width="0.25"></path>
  <path fill="#731b2a" d="M20.93725 19.04155c-0.008525 0.003875 -0.017075 0.007825 -0.0256 0.011775 -0.017475 0.00815 -0.03485 0.016275 -0.0519 0.0244 -0.014025 0.0064 -0.027625 0.0129 -0.04175 0.0193 -0.011075 0.005275 -0.02215 0.01055 -0.033525 0.01595 -0.017075 0.008125 -0.034225 0.01625 -0.0512 0.024375 -0.007 0.00355 -0.014425 0.0069 -0.02175 0.01065 -0.0194 0.00925 -0.0386 0.0182 -0.057275 0.027425 -0.004175 0.00215 -0.008425 0.004175 -0.0127 0.0063 -0.020525 0.010075 -0.04095 0.019925 -0.06075 0.029775 -0.002125 0.001125 -0.004175 0.002025 -0.0063 0.00305 -0.043975 0.021725 -0.085625 0.042775 -0.124525 0.062675 -0.04085 0.117425 -0.110625 0.293875 -0.2168 0.49075 -0.0002 0.0002 -0.0004 0.0006 -0.0004 0.0008 0.0004 -0.0006 0.000825 -0.001225 0.000825 -0.001225 -0.000425 0.000625 -0.000825 0.001025 -0.001125 0.001725 -0.1727 0.283525 -0.380625 0.544275 -0.627675 0.754875 -0.1227 0.105225 -0.256075 0.19685 -0.399425 0.2637 -0.140875 0.06745 -0.29845 0.10655 -0.4559 0.149025 -0.316725 0.079725 -0.6359 0.1547 -0.9567 0.22255 -0.31895 0.071025 -0.64005 0.13695 -0.961475 0.1984 -0.320875 0.0645 -0.6434 0.1223 -0.965425 0.172375 -0.161 0.0252 -0.3219 0.04835 -0.480775 0.059325 -0.039425 0.002025 -0.078425 0.00345 -0.116325 0.00305 -0.017775 -0.001025 -0.03615 -0.002125 -0.049875 -0.00415 -0.002025 0 -0.020625 -0.00285 -0.0256 -0.006 -0.0071 -0.000925 -0.014725 -0.00255 -0.02355 -0.006 -0.0695 -0.02265 -0.141925 -0.059525 -0.212225 -0.098525 -0.281375 -0.15755 -0.5535 -0.3466 -0.8223 -0.53535 -0.208025 -0.145975 -0.4245 -0.3148 -0.633675 -0.470925l-0.018275 0.0259 0.001325 0.001325c0.013 0.011775 0.0261 0.02265 0.0391 0.034125 -0.0003 -0.0002 -0.0005 -0.0004 -0.0009 -0.0006 -0.00955 -0.007125 -0.0187 -0.014125 -0.027525 -0.020625l0.175325 0.20915c0.0005 0.000725 0.0071 0.00875 0.02 0.023775 0.0895 0.105125 0.463925 0.5396 0.90865 0.980675 0.338475 0.335625 0.746825 0.50505 1.215325 0.50505 0.1599 0 0.328 -0.021025 0.49785 -0.06135 0.15705 -0.0386 0.328025 -0.079325 0.50315 -0.1217 0.519275 -0.123525 1.094525 -0.26125 1.476375 -0.3604 0.0254 -0.0068 0.0502 -0.0131 0.07395 -0.0195 0.05405 -0.014225 0.103025 -0.027325 0.1468 -0.039425 0.068875 -0.0197 0.14485 -0.037575 0.2256 -0.055775 0.463125 -0.10735 1.096375 -0.25435 1.4318 -0.926625 0.09285 -0.185375 0.197275 -0.390575 0.30475 -0.599825 0.149525 -0.29085 0.30495 -0.5897 0.4431 -0.8536 0.02195 -0.04185 0.043775 -0.0835 0.0648 -0.123425 0 -0.0002 0.0002 -0.0002 0.0002 -0.0002 0.011175 -0.021425 0.022575 -0.043075 0.033325 -0.0637 -0.026 0.012 -0.052625 0.024375 -0.079025 0.036675Z" stroke-width="0.25"></path>
  <path fill="#731b2a" d="m13.353675 20.491875 -0.030075 -0.02855c-0.1739 0.193625 -0.328025 0.393425 -0.5074 0.58155 -0.106775 0.113375 -0.213325 0.225 -0.322625 0.3336 -0.1091 0.1086 -0.219325 0.2179 -0.3334 0.315825 -0.055875 0.04795 -0.11935 0.098325 -0.171575 0.1232 -0.057275 0.025925 -0.13285 0.0448 -0.2053 0.061875 -0.147375 0.0327 -0.29845 0.0578 -0.4504 0.07995 -0.303125 0.047025 -0.6091 0.085725 -0.91505 0.11845 -0.306275 0.037175 -0.61315 0.06785 -0.919625 0.095375 -0.306975 0.029775 -0.614775 0.053125 -0.919725 0.068975 -0.0769 0.00355 -0.154 0.0059 -0.229375 0.0059 -0.07445 0 -0.145975 -0.0059 -0.2194 -0.0181 -0.145875 -0.024175 -0.289325 -0.07405 -0.42605 -0.13825 -0.27405 -0.129625 -0.524975 -0.313875 -0.749875 -0.5269 0.0002 0.0001 0.0005 0.0005 0.000825 0.000725 0.030375 0.037375 0.063775 0.072425 0.095675 0.108075 -0.007725 -0.007125 -0.015025 -0.014125 -0.02225 -0.020825 -0.024775 -0.023275 -0.0457 -0.043875 -0.060825 -0.06075 -0.1084 -0.117325 -1.0844 -0.9632 -1.593925 -1.40305 -0.0381 -0.017775 -0.0764 -0.03505 -0.1144 -0.052725 0.090325 0.133675 0.18915 0.27855 0.29185 0.42635 0.149225 0.21495 0.306375 0.435875 0.460175 0.643625 0.069575 0.09385 0.13865 0.185275 0.2055 0.271225 0.553925 0.7128 1.251175 1.37145 2.589225 1.37145 0.1675 0 0.345875 -0.010275 0.528825 -0.030975 0.042675 -0.004675 0.0841 -0.00945 0.12485 -0.014325 0.0392 -0.004375 0.0778 -0.00875 0.1152 -0.013125 1.1635 -0.133775 1.482675 -0.19085 1.659825 -0.221425 0.045825 -0.007925 0.084925 -0.01485 0.1273 -0.02105 0.01645 -0.002325 0.033325 -0.004975 0.0512 -0.0073 0.0065 -0.0006 0.399925 -0.0512 0.7845 -0.238325 0.265125 -0.1287 0.5258 -0.3222 0.653375 -0.60825 0.322025 -0.720325 0.38745 -0.8925 0.389975 -0.8989l0.112975 -0.303325Z" stroke-width="0.25"></path>
  <path fill="#0e0f0d" d="M16.505575 13.95125c0.1423 -0.00305 0.255475 -0.120175 0.253025 -0.2625 -0.002125 -0.1424 -0.11975 -0.256175 -0.262675 -0.253025 -0.142225 0.002525 -0.255575 0.12015 -0.25265 0.262475 0.00215 0.141925 0.119975 0.255575 0.2623 0.25305Zm1.585375 1.161075c-0.3404 -0.16445 -0.712475 0.043775 -1.39025 0.056475 -0.50465 0.017975 -0.927625 0.023475 -0.955375 -0.76815 -0.027925 -0.793375 0.2948 -1.448975 0.79945 -1.46645 0.50415 -0.017775 0.964525 0.610725 1.0265 1.401525 0.01705 0.2182 -0.007125 0.377175 -0.06105 0.495025 0.4688 -0.055975 0.57565 0.262375 0.580725 0.281575Z" stroke-width="0.25"></path>
  <path fill="#0e0f0d" d="M9.28 14.142225c0.141825 -0.003575 0.254175 -0.122325 0.2506 -0.264125 -0.00395 -0.142925 -0.1229 -0.255075 -0.2646 -0.2511 -0.142925 0.00305 -0.255075 0.1223 -0.251525 0.2642 0.00385 0.142825 0.1225 0.255075 0.265525 0.251025Zm0.77915 0.41495c0.0075 0.792225 -0.412025 0.7446 -0.917 0.749575 -0.0513 0.001625 -0.09955 0.002325 -0.148 0.002325 -0.056275 0.001525 -0.110625 0.00215 -0.162825 0.001125 -0.490125 -0.001125 -0.803 -0.02305 -1.080225 0.126675 0.0065 -0.017075 0.1283 -0.2891 0.56805 -0.399925 -0.04855 -0.107075 -0.079025 -0.2561 -0.08705 -0.4622 -0.030275 -0.791825 0.458225 -1.44125 0.962775 -1.445825 0.504575 -0.004975 0.85675 0.6359 0.864275 1.42825Z" stroke-width="0.25"></path>
  <path fill="#0e0f0d" d="M19.614625 9.109475c-0.005375 0.069675 -0.01055 0.11925 -0.0137 0.146075 -0.1991 -0.05415 -0.400125 -0.103625 -0.602575 -0.15095 -0.6666 -0.146375 -1.3412 -0.254975 -2.01925 -0.332475 -0.023375 -0.00295 -0.04725 -0.004575 -0.0711 -0.007525 0.00455 -0.01005 0.008725 -0.020125 0.011775 -0.030175 0.020225 -0.07395 0.0379 -0.1481 0.05475 -0.22225 0.174725 -0.77335 0.165575 -1.54355 0.145875 -1.91625l2.41105 0.685575c0.13135 0.85675 0.10595 1.5289 0.083175 1.827975ZM16.61575 8.650325c-0.008025 0.027625 -0.007025 0.056375 0 0.0831 -0.25245 -0.026725 -0.505075 -0.049375 -0.7575 -0.0699 0.2831 -0.59385 0.344975 -1.2261 0.358775 -1.448975 0.2177 -0.1544 0.433975 -0.340075 0.59295 -0.484425 0.014525 0.425525 0.00405 1.19775 -0.194225 1.9202Zm-7.4288 0.081575c0.006825 -0.0256 0.007325 -0.05395 0 -0.081575 -0.197875 -0.72145 -0.20845 -1.493575 -0.194825 -1.9202 0.159475 0.14435 0.37535 0.330025 0.59365 0.484425 0.0132 0.222775 0.07505 0.8536 0.358175 1.44745 -0.252525 0.0199 -0.504975 0.043175 -0.757 0.0699Zm-0.364175 0.0397c-0.33815 0.04125 -0.676725 0.083925 -1.013675 0.139775 -0.336025 0.0575 -0.672175 0.11865 -1.00525 0.1927 -0.20215 0.04695 -0.402375 0.096725 -0.6028 0.15085 -0.001825 -0.01585 -0.00425 -0.040225 -0.0071 -0.0716 -0.02325 -0.248475 -0.06725 -0.964425 0.0771 -1.902125l2.410425 -0.685575c-0.018175 0.358775 -0.028025 1.0858 0.126875 1.829275 0.02155 0.103225 0.046025 0.206525 0.074275 0.309325 0.00305 0.01005 0.0071 0.020125 0.011575 0.02925 -0.024275 0.00305 -0.04745 0.005075 -0.071425 0.008125Zm12.084075 0.973475c-0.0205 -0.00985 -0.040725 -0.019925 -0.060125 -0.029475 -0.029875 -0.014325 -0.062875 -0.030775 -0.100775 -0.04915 -0.002325 -0.001125 -0.00385 -0.00195 -0.00385 -0.00195 -0.02145 -0.01045 -0.042575 -0.02255 -0.0633 -0.03585 -0.223075 -0.1031 -0.4569 -0.18295 -0.69035 -0.25955 -0.027625 -0.009025 -0.05485 -0.01715 -0.082475 -0.025175 0.002025 -0.006925 0.00405 -0.014125 0.005175 -0.021125 0.00345 -0.026425 0.0634 -0.469825 0.027225 -1.1686 -0.015325 -0.29845 -0.04835 -0.643425 -0.110825 -1.022625 -0.01005 -0.06055 -0.05425 -0.1096 -0.11255 -0.126375l-0.34365 -0.0972c-0.07395 -2.659225 -1.1688 -3.908875 -1.203025 -3.947575 0.978025 1.5742 0.9695 3.441075 0.952425 3.87615l-2.130575 -0.605625c-0.001525 0 -0.00295 0 -0.004975 -0.000925 -0.00865 -0.002125 -0.0183 -0.00315 -0.027325 -0.00405 -0.00205 0 -0.004375 -0.000425 -0.007825 -0.000425 -0.011075 -0.0006 -0.023275 0.000425 -0.03485 0.00295 -0.001625 0 -0.00345 0.001625 -0.005675 0.001625 -0.00945 0.001925 -0.0181 0.004975 -0.02755 0.00945 -0.00335 0.001525 -0.0064 0.00365 -0.00945 0.004575 -0.0072 0.004875 -0.0142 0.00895 -0.021225 0.014025 -0.001525 0.0011 -0.00355 0.002025 -0.005075 0.00345 -0.002125 0.001525 -0.00285 0.00305 -0.00405 0.00405 -0.00205 0.00215 -0.004475 0.003575 -0.0061 0.0051 -0.002025 0.002125 -0.059425 0.0583 -0.148525 0.1424 0.0063 -0.1993 0.007825 -0.50425 -0.014825 -0.87665 -0.002225 -0.03535 -0.004475 -0.0712 -0.0069 -0.107475 -0.06695 -0.93555 -0.2881 -2.249725 -0.948975 -3.40014 0.005675 0.0165575 0.071 0.20743 0.155525 0.52894 0.2127 0.8089 0.547625 2.445875 0.365075 4.22235 -0.000925 0.008125 -0.001525 0.01615 -0.00235 0.024375 -0.002725 0.002225 -0.005775 0.004375 -0.008625 0.0066 -0.0833 0.066125 -0.168325 0.13065 -0.252525 0.187525 -0.04215 0.02925 -0.068475 0.0769 -0.069475 0.1283 0 0.008025 -0.0187 0.8022 -0.36915 1.478425 -0.0063 0.011075 -0.00955 0.02225 -0.013125 0.033725 -0.872375 -0.059725 -1.7472 -0.085325 -2.6211 -0.08595 -0.8733 0.000525 -1.748725 0.0246 -2.621625 0.083925 -0.00345 -0.010575 -0.007025 -0.02165 -0.0121 -0.0317 -0.35105 -0.676225 -0.36915 -1.4704 -0.36965 -1.478425 -0.000925 -0.0514 -0.026725 -0.09915 -0.068875 -0.1283 -0.08705 -0.058925 -0.17665 -0.12565 -0.262275 -0.194225 -0.177275 -1.689925 0.1153 -3.2559 0.3282 -4.107975 0.101075 -0.4044925 0.184475 -0.649 0.191075 -0.6676925C9.126925 3.6975 9.0937 5.71085 9.114925 6.413075c-0.0907 -0.0841 -0.146875 -0.140175 -0.1484 -0.1424 -0.001625 -0.001525 -0.004575 -0.00295 -0.0066 -0.0051 -0.001025 -0.001 -0.002025 -0.002525 -0.00345 -0.00405 -0.001625 -0.001425 -0.00355 -0.00235 -0.0056 -0.00345 -0.007 -0.005075 -0.014225 -0.00915 -0.021225 -0.013 -0.00345 -0.00195 -0.006 -0.004075 -0.01005 -0.0056 -0.00915 -0.004475 -0.016975 -0.007525 -0.0261 -0.008525 -0.00255 -0.000925 -0.004475 -0.00255 -0.0061 -0.00255 -0.0121 -0.002425 -0.024175 -0.00355 -0.03535 -0.00295 -0.00295 0 -0.0061 0.000425 -0.00905 0.000425 -0.008625 0.0009 -0.017075 0.001925 -0.0261 0.00405 -0.002025 0.000925 -0.00305 0.000925 -0.005075 0.000925l-2.129975 0.605625c-0.017175 -0.435175 -0.0263 -2.30205 0.951725 -3.87615 -0.033925 0.039 -1.128575 1.28865 -1.20305 3.947875l-0.342025 0.0971c-0.059825 0.016775 -0.1037 0.065825 -0.11355 0.126475 -0.062475 0.3787 -0.0953 0.72325 -0.110925 1.0214 -0.036175 0.6996 0.02385 1.1434 0.027725 1.169825 0.001625 0.007 0.00355 0.0137 0.004675 0.020725 -0.027325 0.008425 -0.055375 0.01655 -0.0826 0.025075 -0.233825 0.0766 -0.4685 0.15685 -0.691775 0.26035 -0.0205 0.013125 -0.04155 0.0252 -0.062975 0.035575 0 0 -0.001425 0.0007 -0.00345 0.001925 -0.038 0.018375 -0.0711 0.034725 -0.100875 0.04915 -0.01695 0.00835 -0.03485 0.016975 -0.052425 0.0256 -0.01105 0.0064 -0.022425 0.012 -0.0333 0.0185 0.15805 -0.062075 0.3215 -0.107375 0.48485 -0.1475 0.16405 -0.040825 0.329125 -0.077 0.493975 -0.108275 0.331675 -0.061675 0.66415 -0.1152 0.99865 -0.15595 0.3336 -0.043775 0.668625 -0.079925 1.00415 -0.108075 0.335725 -0.02865 0.67075 -0.056875 1.007175 -0.076275 1.34525 -0.07965 2.69395 -0.10475 4.043275 -0.10525 1.3496 0.001025 2.6982 0.02205 4.04325 0.104725 0.33655 0.0195 0.671575 0.04755 1.0077 0.076 0.336125 0.028525 0.669925 0.0652 1.003525 0.109 0.3346 0.040225 0.6677 0.09355 0.99875 0.1555 0.165375 0.0318 0.33015 0.06685 0.493375 0.1086 0.164575 0.040225 0.3272 0.085525 0.485575 0.1476 -0.00885 -0.005375 -0.017775 -0.00995 -0.026425 -0.014925Z" stroke-width="0.25"></path>
  <path fill="#0e0f0d" d="M13.2783 3.56625v3.5512h0.4819v0.65905h-1.629375v-0.65905h0.4818V3.56625h-1.170425v0.5841h-0.5659v-1.149925h4.13875v1.149825h-0.565925v-0.5841h-1.170825v0.0001Zm2.162875 1.009225v-2.000775h-4.99v2.000775h1.417075v-0.5841h0.31835v2.70005h-0.4808v1.5097h2.480025v-1.5097h-0.4823V3.991375h0.319575v0.5841h1.418075Z" stroke-width="0.25"></path>
</svg>