<svg xmlns="http://www.w3.org/2000/svg" fill="none" viewBox="0 0 96 96" id="Aws-Ec2--Streamline-Svg-Logos" height="24" width="24">
  <desc>
    Aws Ec2 Streamline Icon: https://streamlinehq.com
  </desc>
  <path fill="url(#a)" d="M95 1H1v94h94V1Z"></path>
  <path fill="#ffffff" d="M32.7251 63.2751h29.375v-29.375h-29.375v29.375Zm31.725-29.375h4.7v2.35h-4.7v4.7h4.7v2.35h-4.7v3.525h4.7v2.35h-4.7v4.7h4.7v2.35h-4.7v4.7h4.7v2.35h-4.7v.1598c0 1.2079-.9823 2.1902-2.1902 2.1902h-.1598v4.7h-2.35v-4.7h-4.7v4.7h-2.35v-4.7h-3.525v4.7h-2.35v-4.7h-4.7v4.7h-2.35v-4.7h-4.7v4.7h-2.35v-4.7h-.1598c-1.2079 0-2.1902-.9823-2.1902-2.1902v-.1598h-3.525v-2.35h3.525v-4.7h-3.525v-2.35h3.525v-4.7h-3.525v-2.35h3.525v-3.525h-3.525v-2.35h3.525v-4.7h-3.525v-2.35h3.525v-.1598c0-1.2079.9823-2.1902 2.1902-2.1902h.1598v-4.7h2.35v4.7h4.7v-4.7h2.35v4.7h4.7v-4.7h2.35v4.7h3.525v-4.7h2.35v4.7h4.7v-4.7h2.35v4.7h.1598c1.2079 0 2.1902.9823 2.1902 2.1902v.1598Zm-15.275 44.5043c0 .0799-.0658.1457-.1457.1457H17.5958c-.0799 0-.1457-.0658-.1457-.1457V46.9708c0-.0799.0658-.1457.1457-.1457h6.9043v-2.35h-6.9043c-1.3759 0-2.4957 1.1198-2.4957 2.4957v31.4336c0 1.3759 1.1198 2.4957 2.4957 2.4957h31.4336c1.3759 0 2.4957-1.1198 2.4957-2.4957v-5.7293h-2.35v5.7293Zm31.725-60.8086v31.4336c0 1.3759-1.1198 2.4957-2.4957 2.4957h-6.9043v-2.35h6.9043c.0799 0 .1457-.0658.1457-.1457V17.5958c0-.0799-.0658-.1457-.1457-.1457H46.9708c-.0799 0-.1457.0658-.1457.1457v6.9043h-2.35v-6.9043c0-1.3759 1.1198-2.4957 2.4957-2.4957h31.4336c1.3759 0 2.4957 1.1198 2.4957 2.4957Z"></path>
  <defs>
    <linearGradient id="a" x1="1" x2="9401" y1="9401" y2="1" gradientUnits="userSpaceOnUse">
      <stop stop-color="#c8511b"></stop>
      <stop offset="1" stop-color="#ff9900"></stop>
    </linearGradient>
  </defs>
</svg>