<svg xmlns="http://www.w3.org/2000/svg" fill="none" viewBox="0 0 24 24" id="Github-Actions--Streamline-Svg-Logos" height="24" width="24">
  <desc>
    Github Actions Streamline Icon: https://streamlinehq.com
  </desc>
  <path fill="#4a7ebf" d="M5.170675 0.24998475c2.71755 0 4.920675 2.20240025 4.920675 4.91944025 0 2.670375 -2.128675 4.84225 -4.781975 4.915925 0 0.22595 0.009975 0.652825 0.13785 0.910575 0.177375 0.357475 1.24145 1.023075 2.284975 1.023075h0.3749c0.2356 -1.67725 1.6759 -2.968 3.418475 -2.968 1.735525 0 3.171625 1.28025 3.415875 2.94755h1.9396c0.24435 -1.6673 1.68035 -2.94755 3.415875 -2.94755 1.907025 0 3.45305 1.54555 3.45305 3.4522 0 1.90655 -1.546025 3.4521 -3.45305 3.4521 -1.735525 0 -3.1716 -1.2803 -3.415875 -2.947625h-1.9395c-0.244275 1.667325 -1.68035 2.947625 -3.415975 2.947625 -1.73225 0 -3.166375 -1.27535 -3.4147 -2.938125l-0.4145 0.01235c-0.6825 -0.005125 -1.403525 -0.187375 -1.98265 -0.58085 -0.157875 -0.1073 -0.313425 -0.220025 -0.475675 -0.326825l-0.00005 0.22415c-0.000875 0.07245 -0.01395 1.16185 -0.015 2.3714l-0.000025 0.2561c0.000475 0.793225 0.00675 1.61055 0.025425 2.2067 0.04095 1.307825 1.10475 2.36335 2.27865 2.610425 0.152575 0.03205 0.414925 0.03615 0.580225 0.021875 0.236025 -1.67665 1.676125 -2.9669 3.4183 -2.9669 1.90705 0 3.45305 1.545625 3.45305 3.4522 0 1.90655 -1.546 3.452175 -3.45305 3.452175 -1.7229 0 -3.15075 -1.26165 -3.410475 -2.9112h-0.2987c-2.24315 -0.12245 -3.637775 -2.179875 -3.61345 -3.84845 0.0307 -2.10005 0.007575 -4.20095 0.007225 -6.301525v-0.69435C1.95247 9.54775 0.25 7.5576 0.25 5.169425 0.25 2.452385 2.4530325 0.24998475 5.170675 0.24998475ZM11.525575 17.854725c-1.349525 0 -2.4436 1.0938 -2.4436 2.443075 0 1.349275 1.094075 2.443075 2.4436 2.443075 1.349625 0 2.4437 -1.0938 2.4437 -2.443075 0 -1.349275 -1.094075 -2.443075 -2.4437 -2.443075Zm0 -7.7946c-1.349525 0 -2.4436 1.0938 -2.4436 2.443075 0 1.3492 1.094075 2.443 2.4436 2.443 1.349625 0 2.4437 -1.0938 2.4437 -2.443 0 -1.349275 -1.094075 -2.443075 -2.4437 -2.443075Zm8.77135 0c-1.349625 0 -2.4436 1.0938 -2.4436 2.443075 0 1.3492 1.093975 2.443 2.4436 2.443 1.3496 0 2.443675 -1.0938 2.443675 -2.443 0 -1.349275 -1.094075 -2.443075 -2.443675 -2.443075Zm1.3917 1.41445c0.192275 0.191825 0.197575 0.500025 0.015625 0.69815l-0.0147 0.015475 -1.49715 1.500375c-0.190775 0.191225 -0.49705 0.197625 -0.69555 0.018175l-0.0158 -0.014975 -0.732975 -0.721525c-0.1986 -0.1955 -0.201125 -0.514975 -0.00555 -0.713525 0.1906 -0.1935 0.4988 -0.2008 0.698225 -0.020175l0.015475 0.014725 0.37565 0.36965 1.143025 -1.145425c0.196825 -0.197375 0.516375 -0.1977 0.713725 -0.000925Zm-8.811575 -0.0074c0.192275 0.191825 0.197575 0.500025 0.01565 0.69825l-0.014725 0.015375 -1.49715 1.5004c-0.190775 0.191225 -0.497025 0.1976 -0.69555 0.01815l-0.0158 -0.01495 -0.732975 -0.721525c-0.1986 -0.195525 -0.201125 -0.515 -0.00555 -0.713525 0.190525 -0.1935 0.4988 -0.200825 0.698225 -0.0201l0.015475 0.014625 0.37565 0.369675 1.143025 -1.14545c0.19685 -0.197275 0.5164 -0.1977 0.713725 -0.000925ZM5.170675 1.2591025c-2.160125 0 -3.911305 1.7506475 -3.911305 3.9103225 0 2.1596 1.75118 3.91035 3.911305 3.91035s3.9113 -1.75075 3.9113 -3.91035c0 -2.159675 -1.751175 -3.9103225 -3.9113 -3.9103225Zm-0.406975 1.5731725c0.8229 0.494375 1.634675 1.00575 2.43545 1.534025 0.6708 0.4425 0.669125 1.245 -0.009175 1.6885 -0.81505 0.533325 -1.643075 1.0447 -2.483875 1.5341 -0.684375 0.39835 -1.4504 -0.0597 -1.468975 -0.85775 -0.01195 -0.5143 -0.0022 -1.029125 -0.002875 -1.543775 -0.000575 -0.500675 -0.010425 -1.001625 0.0017 -1.502075 0.020425 -0.8489 0.801925 -1.2912425 1.52775 -0.853025Zm-0.54245 0.81435v0.355125c-0.000075 0.17585 -0.000075 0.349325 -0.000175 0.520875l-0.000075 0.340575v0.503125c0.000075 0.38835 0.00025 0.77055 0.000925 1.15275 0.00035 0.179875 0.09395 0.172575 0.215075 0.09755 0.69815 -0.43275 1.39665 -0.864975 2.09545 -1.2968 0.1155 -0.071225 0.118775 -0.14565 0.005475 -0.217125 -0.74845 -0.471675 -1.4979 -0.94175 -2.316675 -1.456075Z" stroke-width="0.25"></path>
  <path fill="#85b3df" d="M12.479775 20.801375c0.278675 0 0.5047 -0.225875 0.5047 -0.50455 0 -0.2786 -0.226025 -0.50455 -0.5047 -0.50455 -0.27865 0 -0.504675 0.22595 -0.504675 0.50455 0 0.278675 0.226025 0.50455 0.504675 0.50455Z" stroke-width="0.25"></path>
  <path fill="#85b3df" d="M10.547775 20.801375c0.278675 0 0.504675 -0.225875 0.504675 -0.50455 0 -0.2786 -0.226 -0.50455 -0.504675 -0.50455s-0.504675 0.22595 -0.504675 0.50455c0 0.278675 0.226 0.50455 0.504675 0.50455Z" stroke-width="0.25"></path>
  <path fill="#85b3df" d="M20.29705 22.7409c-1.3496 0 -2.4436 -1.0938 -2.4436 -2.443075 0 -1.349275 1.094 -2.443075 2.4436 -2.443075 1.349525 0 2.443675 1.0938 2.443675 2.443075 0 1.349275 -1.09415 2.443075 -2.443675 2.443075Zm0 -5.895275c-1.735525 0 -3.1716 1.280325 -3.415875 2.947625h-0.56475c-0.246525 0 -0.44655 0.225975 -0.44655 0.504575 0 0.278675 0.200025 0.50455 0.44655 0.50455h0.56475C17.12545 22.4697 18.561525 23.75 20.29705 23.75c1.90705 0 3.45305 -1.545625 3.45305 -3.452175 0 -1.906575 -1.546 -3.4522 -3.45305 -3.4522Z" stroke-width="0.25"></path>
</svg>