<svg width="64" height="64" viewBox="0 0 64 64" data-name="Layer 1" id="Layer_1" xmlns="http://www.w3.org/2000/svg"><defs><style>.cls-1{fill:#ba9bc9}.cls-2{fill:#fcdd7c}.cls-3{fill:#65c8d0}</style></defs><path class="cls-1" d="m17.585 46.009 7-7L26 40.422l-7 7z"/><circle class="cls-2" cx="12" cy="52" r="10"/><path class="cls-1" d="m39.998 25.577 7-7 1.415 1.413-7 7zm-24.417-5.579 1.415-1.415 7 7-1.414 1.415zm22.423 20.416L39.418 39l7 7-1.414 1.414z"/><path class="cls-3" d="M44 32a11.88 11.88 0 0 1-4 8.93 11.75 11.75 0 0 1-4 2.38 12 12 0 0 1-3 .69h-2a12 12 0 0 1-3-.65 11.75 11.75 0 0 1-4-2.38A12 12 0 1 1 44 32"/><path d="M28 36v7.31a11.75 11.75 0 0 1-4-2.38V37Zm12 1v3.93a11.75 11.75 0 0 1-4 2.38V36Z" style="fill:#8f6c56"/><path d="M36 33v10.31a11.94 11.94 0 0 1-8 0V33Z" style="fill:#838bc5"/><path class="cls-2" d="m32.83 30.55-1.66-1.1 1-1.45H30a1 1 0 0 1-.88-.53 1 1 0 0 1 .05-1l2-3 1.66 1.1-1 1.45H34a1 1 0 0 1 .88.53 1 1 0 0 1-.05 1Z"/><path d="M33 41v3h-2v-3Z" style="fill:#f4ecce"/><path class="cls-3" d="m12.89 56.45-1.78-.9L12.38 53H10a1 1 0 0 1-.89-1.45l2-4 1.78.9L11.62 51H14a1 1 0 0 1 .89 1.45Z"/><circle class="cls-2" cx="52" cy="52" r="10"/><path class="cls-3" d="m52.89 56.45-1.78-.9L52.38 53H50a1 1 0 0 1-.89-1.45l2-4 1.78.9L51.62 51H54a1 1 0 0 1 .89 1.45Z"/><circle class="cls-2" cx="12" cy="12" r="10"/><path class="cls-3" d="m12.89 16.45-1.78-.9L12.38 13H10a1 1 0 0 1-.89-1.45l2-4 1.78.9L11.62 11H14a1 1 0 0 1 .89 1.45Z"/><circle class="cls-2" cx="52" cy="12" r="10"/><path class="cls-3" d="m52.89 16.45-1.78-.9L52.38 13H50a1 1 0 0 1-.89-1.45l2-4 1.78.9L51.62 11H54a1 1 0 0 1 .89 1.45Z"/></svg>