<svg height="800" width="800" xmlns="http://www.w3.org/2000/svg" viewBox="0 0 64 64" xml:space="preserve"><style>.st1{opacity:.2}.st2{fill:#231f20}</style><g id="Layer_1"><circle cx="32" cy="32" r="32" style="fill:#e0e0d1"/><g class="st1"><path class="st2" d="M33.8 53.6c-1 .6-2.5.6-3.5 0L12.7 43.1c-1-.6-1-1.5 0-2.1l17.5-10.5c1-.6 2.5-.6 3.5 0L51.2 41c1 .6 1 1.5 0 2.1z"/></g><path d="M33.8 51.6c-1 .6-2.5.6-3.5 0L12.7 41.1c-1-.6-1-1.5 0-2.1l17.5-10.5c1-.6 2.5-.6 3.5 0L51.2 39c1 .6 1 1.5 0 2.1z" style="fill:#c75c5c"/><g class="st1"><path class="st2" d="M33.8 45.6c-1 .6-2.5.6-3.5 0L12.7 35.1c-1-.6-1-1.5 0-2.1l17.5-10.5c1-.6 2.5-.6 3.5 0L51.2 33c1 .6 1 1.5 0 2.1z"/></g><path d="M33.8 43.6c-1 .6-2.5.6-3.5 0L12.7 33.1c-1-.6-1-1.5 0-2.1l17.5-10.5c1-.6 2.5-.6 3.5 0L51.2 31c1 .6 1 1.5 0 2.1z" style="fill:#76c2af"/><g class="st1"><path class="st2" d="M33.8 37.6c-1 .6-2.5.6-3.5 0L12.7 27.1c-1-.6-1-1.5 0-2.1l17.5-10.5c1-.6 2.5-.6 3.5 0L51.2 25c1 .6 1 1.5 0 2.1z"/></g><path d="M33.8 35.6c-1 .6-2.5.6-3.5 0L12.7 25.1c-1-.6-1-1.5 0-2.1l17.5-10.5c1-.6 2.5-.6 3.5 0L51.2 23c1 .6 1 1.5 0 2.1z" style="fill:#4f5d73"/></g><g id="Layer_2"/></svg>