<svg width="800" height="800" viewBox="0 0 64 64" fill="none" xmlns="http://www.w3.org/2000/svg"><path fill-rule="evenodd" clip-rule="evenodd" d="M27.627 24.085a9.7 9.7 0 0 1 5.595-.4 9.87 9.87 0 0 1 4.892 2.751 9.56 9.56 0 0 1 2.534 5.002c.326 1.876.1 3.827-.677 5.552a9.7 9.7 0 0 1-3.638 4.252c-1.606 1.025-3.487 1.576-5.394 1.526a9.67 9.67 0 0 1-5.344-1.701c-1.58-1.075-2.785-2.601-3.512-4.377a9.83 9.83 0 0 1 .15-7.453 9.88 9.88 0 0 1 5.394-5.152" fill="#2a2941"/><path fill-rule="evenodd" clip-rule="evenodd" d="M27.301 23.285a10.57 10.57 0 0 0-4.741 3.877 10.7 10.7 0 0 0-1.807 5.827c0 2.076.602 4.126 1.756 5.852s2.785 3.101 4.717 3.901 4.04 1.026 6.096.65a10.6 10.6 0 0 0 5.42-2.825 10.57 10.57 0 0 0 2.935-5.352 10.5 10.5 0 0 0-.527-6.078 10.4 10.4 0 0 0-2.283-3.45 10.7 10.7 0 0 0-3.437-2.327c-1.28-.55-2.66-.825-4.064-.825-1.38-.05-2.76.225-4.065.75m.627 1.6a8.87 8.87 0 0 1 5.093-.374 8.63 8.63 0 0 1 4.44 2.526 8.8 8.8 0 0 1 2.309 4.551 8.7 8.7 0 0 1-.602 5.052 8.76 8.76 0 0 1-3.312 3.877c-1.455.95-3.186 1.425-4.917 1.4a8.9 8.9 0 0 1-4.867-1.55 8.86 8.86 0 0 1-3.186-3.977 8.8 8.8 0 0 1-.602-3.401 8.6 8.6 0 0 1 .752-3.376 9.4 9.4 0 0 1 1.982-2.851 8.55 8.55 0 0 1 2.91-1.876" fill="#2a2941"/><path d="M27.602 24.186c-2.283 5.527 1.58 15.155 7.702 17.506m-7.652-17.556c7.627 3.126 9.233 13.104 7.928 17.756" stroke="#2a2941" stroke-width="2.034" stroke-linecap="round" stroke-linejoin="round"/><path d="M27.703 41.742a15.6 15.6 0 0 1 5.77-4.051 15.8 15.8 0 0 1 6.974-1.076m-5.795-12.229c-2.308 3.1-7.075 5.052-11.741 4.802m-.427 7.827c7.727-3.45 11.039-4.876 17.662-7.753" stroke="#2a2941" stroke-width="2.034" stroke-linecap="round" stroke-linejoin="round"/><path fill-rule="evenodd" clip-rule="evenodd" d="M21.882 47.094 15.21 31.138l9.433-13.43 16.734 2.026 6.573 16.18-10.863 11.58-15.204-.35zm.928-1.325-6.02-14.43 8.53-12.105 15.152 1.75 5.946 14.656-9.81 10.479z" fill="#2a2941"/><path fill-rule="evenodd" clip-rule="evenodd" d="m24.516 17.108-1.078 2.45 2.358 1.026 1.054-2.45z" fill="#2a2941"/><path fill-rule="evenodd" clip-rule="evenodd" d="m27.778 17.758-3.688-1.575-1.63 3.726 3.687 1.576zm-3.287-.675-1.078 2.45 2.358 1.026 1.053-2.45zm11.441 28.086-.979 2.45 2.459.926.978-2.451z" fill="#2a2941"/><path fill-rule="evenodd" clip-rule="evenodd" d="m39.243 45.694-3.688-1.426-1.455 3.776 3.688 1.426zm-3.312-.526-.978 2.451 2.459.926.978-2.451zM46.418 33.89l-.978 2.45 2.308.925.953-2.45z" fill="#2a2941"/><path fill-rule="evenodd" clip-rule="evenodd" d="m49.63 34.39-3.613-1.426-1.48 3.676 3.612 1.426zm-3.212-.526-.978 2.451 2.308.925.953-2.45zm-6.121-15.055-.953 2.45 2.358.95.978-2.45z" fill="#2a2941"/><path fill-rule="evenodd" clip-rule="evenodd" d="m43.508 19.309-3.688-1.426-1.48 3.677 3.613 1.425 1.48-3.676zm-3.211-.526-.953 2.451 2.358.95.978-2.45zM21.606 44.718l-1.003 2.451 2.383.976 1.003-2.451z" fill="#2a2941"/><path fill-rule="evenodd" clip-rule="evenodd" d="m24.918 45.294-3.688-1.526-1.53 3.676 3.687 1.501zm-3.312-.576-1.003 2.451 2.383.976 1.003-2.451zm-6.397-14.98-1.004 2.45 2.459.976 1.003-2.451z" fill="#2a2941"/><path fill-rule="evenodd" clip-rule="evenodd" d="m18.52 30.363-3.688-1.526-1.53 3.677 3.688 1.5zm-3.311-.6-1.004 2.45 2.459.976 1.003-2.45z" fill="#2a2941"/><path fill-rule="evenodd" clip-rule="evenodd" d="M28.505 22.285a10 10 0 0 1 5.67-.45 9.95 9.95 0 0 1 4.968 2.776 9.8 9.8 0 0 1 2.584 5.052c.351 1.9.1 3.851-.677 5.627a9.63 9.63 0 0 1-3.688 4.302 9.86 9.86 0 0 1-5.47 1.55c-1.931-.025-3.813-.65-5.419-1.75a9.97 9.97 0 0 1-3.537-4.452 9.7 9.7 0 0 1-.678-3.752 9.6 9.6 0 0 1 .828-3.726c.527-1.176 1.255-2.251 2.183-3.126.953-.9 2.032-1.6 3.236-2.051" fill="#32edbb"/><path fill-rule="evenodd" clip-rule="evenodd" d="M28.204 21.46c-1.931.8-3.587 2.15-4.766 3.876a10.4 10.4 0 0 0-1.807 5.852c0 2.101.602 4.127 1.756 5.877s2.81 3.102 4.742 3.927a10.5 10.5 0 0 0 6.122.65c2.057-.4 3.964-1.375 5.444-2.85a10.4 10.4 0 0 0 2.96-5.378 10.55 10.55 0 0 0-.527-6.102 10.7 10.7 0 0 0-2.283-3.477c-.978-1-2.157-1.8-3.462-2.326a11 11 0 0 0-4.09-.85c-1.404.025-2.784.275-4.089.8m.653 1.625A9 9 0 0 1 34 22.71a8.7 8.7 0 0 1 4.465 2.526 9.1 9.1 0 0 1 2.334 4.577 8.9 8.9 0 0 1-.602 5.102 8.87 8.87 0 0 1-8.28 5.302 8.76 8.76 0 0 1-4.892-1.576 9.1 9.1 0 0 1-3.211-4.001 8.95 8.95 0 0 1 .15-6.828c.904-2.176 2.685-3.877 4.893-4.727" fill="#2a2941"/><path fill-rule="evenodd" clip-rule="evenodd" d="M27.953 22.185c-1.229 2.9-.802 6.877.703 10.429 1.505 3.551 4.14 6.652 7.35 7.903q.227.075.452 0a.49.49 0 0 0 .301-.325q.075-.225 0-.45a.49.49 0 0 0-.326-.3c-2.96-1.126-5.343-4.002-6.723-7.278-1.38-3.252-1.782-6.903-.703-9.554a.62.62 0 0 0 0-.425.5.5 0 0 0-.3-.3.7.7 0 0 0-.453 0q-.225.075-.3.3" fill="#2a2941"/><path fill-rule="evenodd" clip-rule="evenodd" d="M28.33 22.885c1.68.75 3.186 1.85 4.39 3.226a12.8 12.8 0 0 1 2.635 4.777 16.5 16.5 0 0 1 .577 9.153c-.026.076-.026.15-.026.226q0 .112.076.225c.05.075.1.125.15.175s.126.075.2.1c.151.025.302.025.427-.05a.65.65 0 0 0 .276-.35 17.7 17.7 0 0 0-.602-9.83 14 14 0 0 0-2.86-5.176 13.8 13.8 0 0 0-4.792-3.501.7.7 0 0 0-.225-.05.7.7 0 0 0-.226.05.45.45 0 0 0-.176.125.8.8 0 0 0-.125.175.7.7 0 0 0-.05.225c0 .075.025.15.05.225s.075.125.125.175c.025.025.1.075.176.1" fill="#2a2941"/><path fill-rule="evenodd" clip-rule="evenodd" d="M29.032 40.392c1.53-1.7 3.412-3.051 5.545-3.902 2.132-.85 4.415-1.225 6.698-1.05q.225 0 .377-.15c.1-.1.175-.225.175-.375a.73.73 0 0 0-.1-.4.49.49 0 0 0-.351-.226 16.2 16.2 0 0 0-13.196 5.352c-.05.05-.101.126-.126.2s-.025.15-.025.226c0 .075.025.15.05.225s.075.125.15.175c.1.1.251.175.402.175a.5.5 0 0 0 .401-.175zm6.097-18.157c-2.208 2.976-6.824 4.877-11.29 4.601a.57.57 0 0 0-.401.15.76.76 0 0 0-.201.4c0 .15.05.3.15.4s.251.176.402.2c4.892.251 9.86-1.8 12.268-5.051a.58.58 0 0 0 .075-.4.49.49 0 0 0-.226-.35c-.125-.075-.25-.125-.401-.1a.38.38 0 0 0-.376.15M23.588 35.79c7.752-3.476 11.039-4.877 17.737-7.778a.6.6 0 0 0 .276-.325.51.51 0 0 0-.025-.425.58.58 0 0 0-.3-.3.62.62 0 0 0-.427-.025c-6.674 2.876-10.01 4.301-17.763 7.778-.075.025-.125.075-.175.125s-.1.125-.126.175c-.025.075-.05.15-.05.225s.025.15.05.225a.45.45 0 0 0 .126.175c.05.05.125.1.2.125s.151.05.226.05c.1 0 .176 0 .251-.025" fill="#2a2941"/><path fill-rule="evenodd" clip-rule="evenodd" d="m22.86 45.494-6.673-15.956 9.433-13.43 16.734 1.875 6.573 16.181L38.014 45.82l-15.204-.325zm.904-1.35-6.021-14.431 8.53-12.105L41.4 19.334l5.946 14.655-9.81 10.504z" fill="#2a2941"/><path fill-rule="evenodd" clip-rule="evenodd" d="m25.445 15.482-1.08 2.451 2.36 1.026 1.078-2.451z" fill="#a694fe"/><path fill-rule="evenodd" clip-rule="evenodd" d="m28.731 16.133-3.688-1.576-1.63 3.726L27.1 19.86zm-3.261-.65-1.08 2.45 2.36 1.026 1.078-2.451z" fill="#2a2941"/><path fill-rule="evenodd" clip-rule="evenodd" d="m36.885 43.543-.953 2.45 2.458.926.953-2.45z" fill="#a694fe"/><path fill-rule="evenodd" clip-rule="evenodd" d="m40.197 44.068-3.689-1.425-1.455 3.801 3.688 1.426zm-3.312-.525-.953 2.45 2.458.926.953-2.45z" fill="#2a2941"/><path fill-rule="evenodd" clip-rule="evenodd" d="m47.372 32.289-.979 2.45 2.308.926.954-2.451z" fill="#a694fe"/><path fill-rule="evenodd" clip-rule="evenodd" d="m50.583 32.789-3.613-1.426-1.48 3.677 3.613 1.425zm-3.211-.525-.979 2.45 2.308.926.954-2.451z" fill="#2a2941"/><path fill-rule="evenodd" clip-rule="evenodd" d="m41.25 17.158-.953 2.45 2.308.926.978-2.45z" fill="#a694fe"/><path fill-rule="evenodd" clip-rule="evenodd" d="m44.462 17.683-3.613-1.425-1.48 3.676 3.612 1.425zm-3.212-.525-.953 2.45 2.308.926.978-2.45z" fill="#2a2941"/><path fill-rule="evenodd" clip-rule="evenodd" d="m22.56 43.093-1.004 2.45 2.459.976.978-2.45z" fill="#a694fe"/><path fill-rule="evenodd" clip-rule="evenodd" d="m25.871 43.668-3.688-1.5-1.53 3.676 3.688 1.526zm-3.311-.6-1.004 2.45 2.459.976.978-2.45z" fill="#2a2941"/><path fill-rule="evenodd" clip-rule="evenodd" d="m16.187 28.112-1.003 2.451 2.458 1 1.004-2.45z" fill="#a694fe"/><path fill-rule="evenodd" clip-rule="evenodd" d="m19.499 28.737-3.688-1.525-1.53 3.676 3.687 1.5zm-3.312-.625-1.004 2.45 2.46.976 1.003-2.45z" fill="#2a2941"/></svg>