<svg xmlns="http://www.w3.org/2000/svg" viewBox="0 0 511.98 511.98" style="enable-background:new 0 0 511.98 511.98" xml:space="preserve"><ellipse style="fill:#929292" cx="255.988" cy="489.085" rx="37.415" ry="22.895"/><path style="fill:#e3bb4d" d="M394.278 138.286C394.278 61.911 332.363 0 255.988 0S117.702 61.911 117.702 138.286c0 31.58 10.607 60.671 28.421 83.951h-.024c23.22 31.214 61.983 84.477 61.983 145.196h95.814c0-60.719 38.763-113.978 61.983-145.196h-.028c17.82-23.28 28.427-52.372 28.427-83.951z"/><circle style="fill:#fff" cx="198.56" cy="93.619" r="33.598"/><circle style="fill:#fff" cx="182.306" cy="152.119" r="12.509"/><path style="fill:#696969" d="M318.714 476.805c0 7.778-6.305 14.078-14.078 14.078H206.1c-7.778 0-14.078-6.301-14.078-14.078V374.613c0-7.778 6.305-14.078 14.078-14.078h98.531c7.778 0 14.078 6.301 14.078 14.078v102.191h.005z"/><path style="fill:#929292" d="M327.8 382.026c0 5.442-4.41 10.342-9.852 10.952L192.789 406.9c-5.438.602-9.852-3.315-9.852-8.757s4.41-10.342 9.852-10.952l125.159-13.922c5.437-.602 9.852 3.319 9.852 8.757zm0 35.624c0 5.438-4.41 10.342-9.852 10.948L192.789 442.52c-5.438.602-9.852-3.315-9.852-8.757 0-5.438 4.41-10.342 9.852-10.948l125.159-13.922c5.437-.605 9.852 3.32 9.852 8.757zm0 35.621c0 5.438-4.41 10.342-9.852 10.948l-125.159 13.922c-5.438.606-9.852-3.315-9.852-8.757 0-5.438 4.41-10.342 9.852-10.948l125.159-13.922c5.437-.601 9.852 3.319 9.852 8.757z"/></svg>